<?xml version="1.0" ?><svg height="48px" version="1.1" viewBox="0 0 48 48" width="48px" xmlns="http://www.w3.org/2000/svg" xmlns:xlink="http://www.w3.org/1999/xlink"><title/><g fill="none" fill-rule="evenodd" id="arrow-down" stroke="none" stroke-width="1"><path d="M15.0839749,20.2226499 L15.0434343,20.2953753 C14.8973068,20.6162383 15.1291771,21 15.5,21 L21,21 L21,39.5 C21,39.7761424 21.2238576,40 21.5,40 L25.5,40 L25.5898756,39.9919443 C25.8231248,39.9496084 26,39.7454599 26,39.5 L26,21 L31.5,21 C31.8993477,21 32.1375434,20.5549273 31.9160251,20.2226499 L23.9160251,8.2226499 C23.7181141,7.92578337 23.2818859,7.92578337 23.0839749,8.2226499 L15.0839749,20.2226499 Z M23.5,9.402 L30.565,20 L25.5,20 L25.4101244,20.0080557 C25.1768752,20.0503916 25,20.2545401 25,20.5 L25,39 L22,39 L22,20.5 L21.9919443,20.4101244 C21.9496084,20.1768752 21.7454599,20 21.5,20 L16.434,20 L23.5,9.402 Z" fill="#000000" fill-rule="nonzero" id="Path" transform="translate(23.500000, 24.000000) scale(1, -1) translate(-23.500000, -24.000000) "/></g></svg>