<?xml version="1.0" ?><svg height="48px" version="1.1" viewBox="0 0 48 48" width="48px" xmlns="http://www.w3.org/2000/svg" xmlns:xlink="http://www.w3.org/1999/xlink"><title/><g fill="none" fill-rule="evenodd" id="arrow-left" stroke="none" stroke-width="1"><path d="M15.5839749,19.7226499 L15.5434343,19.7953753 C15.3973068,20.1162383 15.6291771,20.5 16,20.5 L21.5,20.5 L21.5,39 C21.5,39.2761424 21.7238576,39.5 22,39.5 L26,39.5 L26.0898756,39.4919443 C26.3231248,39.4496084 26.5,39.2454599 26.5,39 L26.5,20.5 L32,20.5 C32.3993477,20.5 32.6375434,20.0549273 32.4160251,19.7226499 L24.4160251,7.7226499 C24.2181141,7.42578337 23.7818859,7.42578337 23.5839749,7.7226499 L15.5839749,19.7226499 Z M24,8.902 L31.065,19.5 L26,19.5 L25.9101244,19.5080557 C25.6768752,19.5503916 25.5,19.7545401 25.5,20 L25.5,38.5 L22.5,38.5 L22.5,20 L22.4919443,19.9101244 C22.4496084,19.6768752 22.2454599,19.5 22,19.5 L16.934,19.5 L24,8.902 Z" fill="#000000" fill-rule="nonzero" id="Path" transform="translate(24.000000, 23.500000) rotate(-90.000000) translate(-24.000000, -23.500000) "/></g></svg>